<svg width="24" height="24" viewBox="0 0 24 24" fill="none" xmlns="http://www.w3.org/2000/svg" preserveAspectRatio="xMinYMid meet">
<path fill-rule="evenodd" clip-rule="evenodd" d="M9.5 3.5C9.22386 3.5 9 3.72386 9 4V4.5H8C7.17157 4.5 6.5 5.17157 6.5 6V19.5C6.5 20.3284 7.17157 21 8 21H16C16.8284 21 17.5 20.3284 17.5 19.5V6C17.5 5.17157 16.8284 4.5 16 4.5H15V4C15 3.72386 14.7761 3.5 14.5 3.5H9.5ZM14 4.5H10V5.5H14V4.5ZM9 5.5H8C7.72386 5.5 7.5 5.72386 7.5 6V19.5C7.5 19.7761 7.72386 20 8 20H16C16.2761 20 16.5 19.7761 16.5 19.5V6C16.5 5.72386 16.2761 5.5 16 5.5H15V6C15 6.27614 14.7761 6.5 14.5 6.5H9.5C9.22386 6.5 9 6.27614 9 6V5.5Z" fill="#212529"/>
<path fill-rule="evenodd" clip-rule="evenodd" d="M15.3536 10.1464C15.5488 10.3417 15.5488 10.6583 15.3536 10.8536L11.6036 14.6036C11.4083 14.7988 11.0917 14.7988 10.8964 14.6036L9.14645 12.8536C8.95118 12.6583 8.95118 12.3417 9.14645 12.1464C9.34171 11.9512 9.65829 11.9512 9.85355 12.1464L11.25 13.5429L14.6464 10.1464C14.8417 9.95118 15.1583 9.95118 15.3536 10.1464Z" fill="#212529"/>
<path d="M9.5 16.5C9.22386 16.5 9 16.7239 9 17C9 17.2761 9.22386 17.5 9.5 17.5H14.5C14.7761 17.5 15 17.2761 15 17C15 16.7239 14.7761 16.5 14.5 16.5H9.5Z" fill="#212529"/>
</svg>
